<svg width="25" height="25" viewBox="0 0 25 25" fill="none" xmlns="http://www.w3.org/2000/svg">
<g clip-path="url(#clip0_52_323)">
<path d="M5.95437 14.0872C6.50666 14.0872 6.95437 13.6395 6.95437 13.0872C6.95437 12.5349 6.50666 12.0872 5.95437 12.0872C5.40209 12.0872 4.95438 12.5349 4.95438 13.0872C4.95438 13.6395 5.40209 14.0872 5.95437 14.0872Z" fill="#374957"/>
<path d="M1.95453 10.0873C2.50681 10.0873 2.95453 9.63956 2.95453 9.08728C2.95453 8.53499 2.50681 8.08728 1.95453 8.08728C1.40224 8.08728 0.954529 8.53499 0.954529 9.08728C0.954529 9.63956 1.40224 10.0873 1.95453 10.0873Z" fill="#374957"/>
<path d="M5.95437 6.08703C6.50666 6.08703 6.95437 5.63932 6.95437 5.08703C6.95437 4.53475 6.50666 4.08704 5.95437 4.08704C5.40209 4.08704 4.95438 4.53475 4.95438 5.08703C4.95438 5.63932 5.40209 6.08703 5.95437 6.08703Z" fill="#374957"/>
<path d="M1.95453 2.08716C2.50681 2.08716 2.95453 1.63944 2.95453 1.08716C2.95453 0.534873 2.50681 0.0871582 1.95453 0.0871582C1.40224 0.0871582 0.954529 0.534873 0.954529 1.08716C0.954529 1.63944 1.40224 2.08716 1.95453 2.08716Z" fill="#374957"/>
<path d="M23.9544 14.0872C24.5066 14.0872 24.9544 13.6395 24.9544 13.0872C24.9544 12.5349 24.5066 12.0872 23.9544 12.0872C23.4021 12.0872 22.9544 12.5349 22.9544 13.0872C22.9544 13.6395 23.4021 14.0872 23.9544 14.0872Z" fill="#374957"/>
<path d="M19.9545 10.0873C20.5068 10.0873 20.9545 9.63956 20.9545 9.08728C20.9545 8.53499 20.5068 8.08728 19.9545 8.08728C19.4022 8.08728 18.9545 8.53499 18.9545 9.08728C18.9545 9.63956 19.4022 10.0873 19.9545 10.0873Z" fill="#374957"/>
<path d="M23.9544 6.08703C24.5066 6.08703 24.9544 5.63932 24.9544 5.08703C24.9544 4.53475 24.5066 4.08704 23.9544 4.08704C23.4021 4.08704 22.9544 4.53475 22.9544 5.08703C22.9544 5.63932 23.4021 6.08703 23.9544 6.08703Z" fill="#374957"/>
<path d="M19.9545 2.08716C20.5068 2.08716 20.9545 1.63944 20.9545 1.08716C20.9545 0.534873 20.5068 0.0871582 19.9545 0.0871582C19.4022 0.0871582 18.9545 0.534873 18.9545 1.08716C18.9545 1.63944 19.4022 2.08716 19.9545 2.08716Z" fill="#374957"/>
<path d="M14.9544 24.087C15.5067 24.087 15.9544 23.6393 15.9544 23.087C15.9544 22.5347 15.5067 22.087 14.9544 22.087C14.4021 22.087 13.9544 22.5347 13.9544 23.087C13.9544 23.6393 14.4021 24.087 14.9544 24.087Z" fill="#374957"/>
<path d="M10.9545 20.0872C11.5068 20.0872 11.9545 19.6395 11.9545 19.0872C11.9545 18.5349 11.5068 18.0872 10.9545 18.0872C10.4022 18.0872 9.95453 18.5349 9.95453 19.0872C9.95453 19.6395 10.4022 20.0872 10.9545 20.0872Z" fill="#374957"/>
<path d="M14.9544 16.0873C15.5067 16.0873 15.9544 15.6396 15.9544 15.0873C15.9544 14.535 15.5067 14.0873 14.9544 14.0873C14.4021 14.0873 13.9544 14.535 13.9544 15.0873C13.9544 15.6396 14.4021 16.0873 14.9544 16.0873Z" fill="#374957"/>
<path d="M10.9545 12.087C11.5068 12.087 11.9545 11.6393 11.9545 11.087C11.9545 10.5348 11.5068 10.087 10.9545 10.087C10.4022 10.087 9.95453 10.5348 9.95453 11.087C9.95453 11.6393 10.4022 12.087 10.9545 12.087Z" fill="#374957"/>
<path d="M15.9547 3.08716C15.4242 3.08716 14.9155 2.87644 14.5405 2.50137C14.1654 2.1263 13.9547 1.61759 13.9547 1.08716C13.9547 0.821942 13.8493 0.567588 13.6618 0.380051C13.4742 0.192515 13.2199 0.0871582 12.9547 0.0871582C12.6895 0.0871582 12.4351 0.192515 12.2476 0.380051C12.06 0.567588 11.9547 0.821942 11.9547 1.08716C11.9547 1.61759 11.744 2.1263 11.3689 2.50137C10.9938 2.87644 10.4851 3.08716 9.95468 3.08716C9.68946 3.08716 9.43511 3.19251 9.24757 3.38005C9.06004 3.56759 8.95468 3.82194 8.95468 4.08716C8.95468 4.35237 9.06004 4.60673 9.24757 4.79426C9.43511 4.9818 9.68946 5.08716 9.95468 5.08716C10.4851 5.08716 10.9938 5.29787 11.3689 5.67294C11.744 6.04802 11.9547 6.55673 11.9547 7.08716C11.9547 7.35237 12.06 7.60673 12.2476 7.79426C12.4351 7.9818 12.6895 8.08716 12.9547 8.08716C13.2199 8.08716 13.4742 7.9818 13.6618 7.79426C13.8493 7.60673 13.9547 7.35237 13.9547 7.08716C13.9547 6.55673 14.1654 6.04802 14.5405 5.67294C14.9155 5.29787 15.4242 5.08716 15.9547 5.08716C16.2199 5.08716 16.4742 4.9818 16.6618 4.79426C16.8493 4.60673 16.9547 4.35237 16.9547 4.08716C16.9547 3.82194 16.8493 3.56759 16.6618 3.38005C16.4742 3.19251 16.2199 3.08716 15.9547 3.08716Z" fill="#374957"/>
<path d="M7.95453 19.087C7.4241 19.087 6.91539 18.8763 6.54032 18.5012C6.16524 18.1262 5.95453 17.6175 5.95453 17.087C5.95453 16.8218 5.84917 16.5675 5.66164 16.3799C5.4741 16.1924 5.21975 16.087 4.95453 16.087C4.68931 16.087 4.43496 16.1924 4.24742 16.3799C4.05989 16.5675 3.95453 16.8218 3.95453 17.087C3.95453 17.6175 3.74382 18.1262 3.36874 18.5012C2.99367 18.8763 2.48496 19.087 1.95453 19.087C1.68931 19.087 1.43496 19.1924 1.24742 19.3799C1.05989 19.5675 0.954529 19.8218 0.954529 20.087C0.954529 20.3522 1.05989 20.6066 1.24742 20.7941C1.43496 20.9817 1.68931 21.087 1.95453 21.087C2.48496 21.087 2.99367 21.2977 3.36874 21.6728C3.74382 22.0479 3.95453 22.5566 3.95453 23.087C3.95453 23.3522 4.05989 23.6066 4.24742 23.7941C4.43496 23.9817 4.68931 24.087 4.95453 24.087C5.21975 24.087 5.4741 23.9817 5.66164 23.7941C5.84917 23.6066 5.95453 23.3522 5.95453 23.087C5.95453 22.5566 6.16524 22.0479 6.54032 21.6728C6.91539 21.2977 7.4241 21.087 7.95453 21.087C8.21975 21.087 8.4741 20.9817 8.66164 20.7941C8.84917 20.6066 8.95453 20.3522 8.95453 20.087C8.95453 19.8218 8.84917 19.5675 8.66164 19.3799C8.4741 19.1924 8.21975 19.087 7.95453 19.087Z" fill="#374957"/>
<path d="M23.9544 19.087C23.4239 19.087 22.9152 18.8763 22.5402 18.5012C22.1651 18.1262 21.9544 17.6175 21.9544 17.087C21.9544 16.8218 21.849 16.5675 21.6615 16.3799C21.4739 16.1924 21.2196 16.087 20.9544 16.087C20.6892 16.087 20.4348 16.1924 20.2473 16.3799C20.0597 16.5675 19.9544 16.8218 19.9544 17.087C19.9544 17.6175 19.7437 18.1262 19.3686 18.5012C18.9935 18.8763 18.4848 19.087 17.9544 19.087C17.6892 19.087 17.4348 19.1924 17.2473 19.3799C17.0597 19.5675 16.9544 19.8218 16.9544 20.087C16.9544 20.3522 17.0597 20.6066 17.2473 20.7941C17.4348 20.9817 17.6892 21.087 17.9544 21.087C18.4848 21.087 18.9935 21.2977 19.3686 21.6728C19.7437 22.0479 19.9544 22.5566 19.9544 23.087C19.9544 23.3522 20.0597 23.6066 20.2473 23.7941C20.4348 23.9817 20.6892 24.087 20.9544 24.087C21.2196 24.087 21.4739 23.9817 21.6615 23.7941C21.849 23.6066 21.9544 23.3522 21.9544 23.087C21.9544 22.5566 22.1651 22.0479 22.5402 21.6728C22.9152 21.2977 23.4239 21.087 23.9544 21.087C24.2196 21.087 24.4739 20.9817 24.6615 20.7941C24.849 20.6066 24.9544 20.3522 24.9544 20.087C24.9544 19.8218 24.849 19.5675 24.6615 19.3799C24.4739 19.1924 24.2196 19.087 23.9544 19.087Z" fill="#374957"/>
</g>
<defs>
<clipPath id="clip0_52_323">
<rect width="24" height="24" fill="white" transform="translate(0.954529 0.0871582)"/>
</clipPath>
</defs>
</svg>
