<svg width="544" height="506" viewBox="0 0 544 506" fill="none" xmlns="http://www.w3.org/2000/svg">
<path fill-rule="evenodd" clip-rule="evenodd" d="M126.304 278.088C126.966 281.281 126.226 284.615 125.016 287.642C125.319 287.931 125.622 288.219 125.925 288.508C131.98 283.795 138.129 278.985 142.532 272.701C144.386 270.054 142.195 266.189 139.225 264.914C136.255 263.638 132.877 264.032 129.648 263.895C125.762 263.73 121.912 262.753 118.418 261.043C113.346 258.561 108.691 254.467 103.044 254.383C102.421 254.374 101.753 254.431 101.264 254.817C100.069 255.757 100.799 257.671 101.696 258.898C106.148 264.988 112.821 269.416 120.163 271.152C123.337 271.903 125.643 274.896 126.304 278.088Z" fill="#FBBC05"/>
<path fill-rule="evenodd" clip-rule="evenodd" d="M223.71 371.102L143.441 389.013C127.035 392.674 110.767 382.345 107.106 365.942C105.341 358.036 106.802 349.753 111.165 342.927L155.453 273.639C169.087 252.309 173.652 226.424 168.137 201.717L150.222 121.464C146.561 105.061 156.892 88.7964 173.298 85.1356C181.206 83.3711 189.491 84.8317 196.318 89.1938L265.619 133.473C286.954 147.105 312.844 151.669 337.555 146.155L417.824 128.244C434.23 124.583 450.498 134.912 454.159 151.315C455.924 159.221 454.463 167.504 450.1 174.33L405.812 243.618C392.178 264.948 387.613 290.833 393.128 315.54L411.043 395.793C414.704 412.196 404.373 428.461 387.967 432.122C380.059 433.886 371.775 432.425 364.947 428.063L295.646 383.784C274.312 370.153 248.421 365.588 223.71 371.102Z" fill="#FBBC05"/>
<path d="M506.03 339.858C506.03 339.858 146.304 340.048 3.87971 339.858C-7.29909 315.493 6.76416 282.937 32.1692 274.368C24.2184 283.437 16.2677 292.505 8.31699 301.574C22.286 301.434 506.03 301.574 506.03 301.574V339.858Z" fill="white"/>
<path fill-rule="evenodd" clip-rule="evenodd" d="M390.01 339.912C211.399 339.981 82.6887 339.963 3.87977 339.858C-7.29903 315.493 266.8 325.753 370.738 325.753C474.676 325.753 426.59 339.898 390.01 339.912Z" fill="#E7EAEE"/>
<path fill-rule="evenodd" clip-rule="evenodd" d="M315.625 60.5359C316.895 59.0888 319.4 58.9819 320.788 60.3155C316.304 51.436 303.186 48.7742 300.367 39.2347C296.759 27.0231 291.437 15.3191 284.605 4.57281C281.762 15.1381 276.332 24.9974 268.921 33.0473C266.993 33.056 265.064 33.0647 263.136 33.0734C258.756 33.0931 254.337 33.117 250.06 34.0585C242.364 35.7524 235.465 40.341 227.668 41.4829C228.246 40.7592 228.824 40.0356 229.402 39.3119C229.241 38.5651 228.158 38.2235 227.598 38.7426C226.61 34.8148 223.429 31.7304 219.819 29.8917C216.21 28.0531 210.888 24.631 200.236 25.5311C213.16 39.9964 209.157 100.217 212.337 111.629C213.422 111.919 214.252 110.733 214.957 109.861C215.662 108.988 217.309 108.452 217.69 109.507C220.338 116.845 220.714 128.135 228.829 132.507C230.395 133.351 231.327 131.775 231.205 131.007C231.05 130.026 232.228 129.27 233.21 129.419C234.192 129.568 234.977 130.279 235.743 130.911C248.651 141.568 269.788 136.075 282.712 146.713C285.265 148.814 287.516 151.554 290.703 152.439C292.605 152.967 294.631 152.759 296.574 152.41C308.143 150.337 318.443 143.475 326.477 134.899C334.512 126.323 340.511 116.069 346.096 105.73C340.95 102.816 335.54 99.64 332.745 94.4296C330.542 90.3242 329.187 84.4393 324.555 83.9376C326.024 88.7092 327.493 93.4808 328.963 98.2524C329.501 99.9996 330.045 101.822 329.761 103.628C329.476 105.433 328.096 107.207 326.269 107.299C323.791 107.423 322.046 104.619 319.585 104.3C319.119 113.529 315.574 122.577 309.647 129.667C307.59 132.128 303.635 134.362 301.548 131.927C304.716 126.81 307.884 121.693 311.052 116.576C313.027 113.387 315.053 110.05 315.414 106.317C315.776 102.584 313.925 98.3497 310.335 97.2613C310.175 96.2744 311.217 95.4267 312.216 95.3972C313.216 95.3678 314.136 95.8968 314.995 96.4089C318.191 98.3147 321.387 100.22 324.582 102.126C323.563 94.5498 321.478 87.1175 318.408 80.116C321.382 79.8344 324.423 80.2888 327.185 81.4275C325.059 75.2768 321.16 69.7499 316.078 65.683C314.575 64.48 314.355 61.983 315.625 60.5359Z" fill="white"/>
<path fill-rule="evenodd" clip-rule="evenodd" d="M251.804 44.2089C254.437 45.9513 256.514 48.5202 257.666 51.4594C258.024 52.3734 259.041 52.8144 259.728 53.5162C260.415 54.218 260.528 55.718 259.566 55.914C259.146 55.9997 258.733 55.768 258.364 55.5479C252.461 52.0239 245.283 49.1787 238.843 51.5855C239.902 52.1262 240.436 53.5137 240.014 54.625C241.328 54.6725 242.554 55.2635 243.735 55.8428C244.775 56.353 245.814 56.8632 246.854 57.3734C246.745 57.6804 246.636 57.9874 246.528 58.2943C241.826 55.9008 236.083 55.6519 231.192 57.6297C232.817 57.8766 234.474 57.9218 236.11 57.7638C238.497 58.9663 240.883 60.1689 243.27 61.3714C243.8 61.6389 244.36 61.933 244.659 62.447C244.958 62.9609 244.844 63.7578 244.289 63.9697C239.977 60.1674 233.877 58.4861 228.225 59.542C227.566 59.6653 227.115 58.7455 227.395 58.1359C227.675 57.5262 228.346 57.2134 228.97 56.9676C232.103 55.7344 235.407 54.9367 238.757 54.6046C237.081 53.0512 235.14 51.7847 233.043 50.8765C232.698 49.6956 234.402 48.5637 235.357 49.3396C242.613 47.9174 250.387 49.3286 256.68 53.2104C256.733 51.9761 255.817 50.9382 254.961 50.0479C252.283 47.2647 249.605 44.4815 246.927 41.6982C251.616 42.2922 256.212 43.6122 260.502 45.5967C261.472 46.0455 262.43 46.5301 263.309 47.1384C266.618 49.429 268.588 53.5265 268.309 57.5411C266.304 53.3048 263.131 49.6285 259.233 47.026C257.005 45.5384 254.478 44.3802 251.804 44.2089V44.2089Z" fill="#E7EAEE"/>
<path fill-rule="evenodd" clip-rule="evenodd" d="M81.3554 244.435C74.5653 250.528 75.1581 261.31 77.6089 270.097C80.7619 281.402 86.0938 292.095 93.2259 301.416L8.31699 302.269L32.1692 275.063C6.76416 283.631 -7.29909 316.188 3.87971 340.553C146.304 340.743 288.728 340.451 431.15 339.679C405.173 357.232 379.99 378.526 367.919 407.457C355.848 436.388 360.847 474.424 386.508 492.435C396.066 499.143 407.544 502.581 419.018 504.754C430.849 506.994 445.177 507.088 452.479 497.515C456.744 491.924 454.705 483.152 452.689 474.476C451.283 468.424 449.887 462.419 450.65 457.574C453.236 441.145 464.298 432.813 476.921 423.306L476.923 423.305C479.574 421.308 482.294 419.259 485.019 417.073C508.289 398.4 534.965 374.792 541.756 345.743C547.959 319.209 541.132 292.888 523.391 272.203C517.003 264.755 509.151 257.976 501.258 251.163C490.653 242.007 479.976 232.79 472.685 221.805C468.233 215.096 466.672 207.925 465.035 200.399L465.034 200.398L465.034 200.398L465.033 200.392L465.032 200.387C464.445 197.69 463.848 194.947 463.104 192.164C453.539 156.377 419.433 137.976 384.314 119.029C379.866 116.63 375.402 114.221 370.969 111.767C350.645 100.517 330.132 86.1162 323.606 63.5737C327.205 63.714 328.539 58.3058 326.465 55.3614C324.923 53.1719 322.487 51.9398 320.057 50.7108C319.219 50.2872 318.382 49.8639 317.583 49.4018C310.162 45.1126 305.907 36.3622 301.551 27.4011C295.005 13.9383 288.229 0 270.136 0C269.453 4.56765 270.159 8.63691 270.821 12.4495C271.842 18.3416 272.758 23.6207 268.28 29.1791C255.458 27.7574 242.202 30.5608 231.055 37.0518C224.609 24.8182 208.264 19.5923 195.014 23.5531C196.691 25.6647 197.686 26.7238 198.511 27.6018C200.254 29.4564 201.237 30.5027 206.292 38.9546C213.74 51.4074 209.021 97.1871 207.843 104.425C206.664 111.663 212.242 116.807 217.344 113.233C214.859 123.961 223.813 134.199 234.823 134.507C238.583 135.178 240.92 136.997 243.128 138.715C244.502 139.785 245.826 140.815 247.412 141.506C212.453 166.507 173.752 186.268 132.999 199.927L132.282 200.167C124.657 202.718 116.687 205.385 111.287 211.31C105.719 217.42 104.411 228.267 110.891 233.401C106.935 236.988 101.52 237.963 96.1038 238.939C90.7096 239.911 85.3138 240.882 81.3554 244.435ZM442.497 292.818C436.188 298.778 423.836 299.09 415.156 299.055L302.59 298.594C299.338 294.274 301.349 287.634 305.55 284.229C309.751 280.825 315.407 279.908 320.798 279.482C338.198 278.104 355.893 280.604 372.23 286.746C376.818 287.561 380.301 281.775 379.193 277.25C378.084 272.725 374.23 269.489 370.646 266.512C359.082 256.907 347.743 246.09 342.315 232.073C336.685 217.536 338.318 200.387 346.59 187.174C332.703 198.708 329.785 219.911 336.022 236.85C342.259 253.79 355.954 266.966 370.794 277.246C362.69 278.908 354.275 277.057 345.946 275.225C335.854 273.005 325.887 270.813 316.746 274.93L314.862 223.527L309.976 268.584C309.613 271.933 308.558 276.078 305.246 276.701C296.257 278.392 290.927 290.163 295.588 298.032C291.571 300.743 285.443 299.53 282.761 295.495C280.079 291.459 281.336 285.341 285.391 282.688C295.228 276.255 296.006 262.396 295.738 250.647L293.891 169.529C293.847 167.571 294.29 164.997 296.231 164.727C324.632 160.782 349.884 139.446 358.51 112.105C383.681 123.378 408.856 136.376 429.166 154.277C475.646 195.243 462.897 229.306 459.562 238.217C458.978 239.778 458.682 240.567 459.045 240.486C461.363 239.968 462.462 237.359 463.104 235.073C464.603 229.733 465.58 224.246 466.014 218.716C473.685 232.964 485.898 243.789 498.136 254.637C509.322 264.551 520.528 274.483 528.304 287.064C540.297 306.465 542.807 331.434 534.917 352.833C525.595 378.112 504.172 395.795 483.042 413.235L483.04 413.237C477.964 417.427 472.904 421.604 468.033 425.869C457.836 434.796 447.578 445.856 447.249 459.403C447.16 463.033 447.809 466.611 448.458 470.194L448.458 470.195C448.917 472.727 449.377 475.263 449.577 477.821C450.06 483.999 448.536 491.027 443.303 494.349C441.097 495.75 438.472 496.327 435.885 496.7C409.066 500.573 376.213 482.428 368.562 456.437C361.055 430.933 374.232 399.468 391.546 379.291C402.303 366.756 416.221 357.798 430.185 348.81L430.185 348.81L430.186 348.809L430.187 348.809L430.187 348.808C438.7 343.329 447.23 337.839 455.071 331.521C462.419 325.599 469.677 319.216 474.327 311.004C478.977 302.793 480.647 292.353 476.47 283.891C473.047 276.956 466.3 272.14 459.684 267.418C451.365 261.48 443.253 255.69 442.218 246.02C442.345 250.365 444.179 255.232 445.998 260.056C447.583 264.263 449.157 268.436 449.575 272.203C450.473 280.289 448.412 287.23 442.497 292.818ZM456.184 276.236C467.484 276.359 474.12 290.661 470.942 301.503C467.763 312.344 458.427 320.061 449.575 327.083C445.133 330.606 440.229 334.3 434.56 334.342L7.08885 337.54L5.21592 304.386L87.6596 304.307C98.3233 304.297 110.415 304.907 117.361 312.996C119.886 315.938 124.384 312.735 127.466 310.382C134.766 304.807 144.679 304.535 153.865 304.497L455.487 303.274C458.721 303.261 463.073 302.174 462.967 298.942L442.685 298.18C449.969 293.167 454.995 284.996 456.184 276.236ZM142.495 300.71C147.02 289.784 150.452 278.407 152.726 266.803C153.364 263.544 153.913 260.206 153.479 256.914C152.177 247.033 142.792 240.529 134.17 235.526C137.85 235.452 140.989 232.851 143.351 230.029C144.009 229.243 144.636 228.426 145.264 227.609C146.892 225.49 148.519 223.372 150.664 221.805C155.064 218.59 155.769 218.532 164.858 217.787H164.858L164.866 217.786L164.899 217.784C165.824 217.708 166.835 217.625 167.946 217.531C175.939 216.853 195.27 209.572 209.386 204.254L209.386 204.254L209.386 204.254L209.387 204.254C216.588 201.542 222.43 199.341 224.718 198.789C256.025 191.236 277.725 201.124 282.612 206.454C285.279 209.363 285.933 213.534 286.469 217.443C288.879 235.031 291.291 252.896 288.752 270.466C288.278 273.746 287.401 277.361 284.619 279.163C281.83 280.97 279.203 283.027 276.781 285.303C272.898 288.951 269.407 294.874 272.423 299.266L142.495 300.71ZM320.693 59.011C319.304 57.6774 316.8 57.7843 315.53 59.2314C314.26 60.6784 314.48 63.1755 315.983 64.3785C321.064 68.4454 324.963 73.9723 327.09 80.123C324.328 78.9843 321.287 78.5299 318.313 78.8115C321.382 85.813 323.467 93.2453 324.487 100.822L314.9 95.1044C314.041 94.5923 313.121 94.0633 312.121 94.0927C311.122 94.1221 310.08 94.9699 310.24 95.9568C313.83 97.0452 315.681 101.28 315.319 105.013C314.957 108.746 312.931 112.082 310.957 115.271L301.453 130.622C303.54 133.057 307.495 130.823 309.552 128.363C315.479 121.272 319.023 112.225 319.49 102.995C320.633 103.144 321.621 103.828 322.601 104.506C323.73 105.288 324.847 106.061 326.174 105.995C328 105.903 329.381 104.129 329.665 102.323C329.95 100.517 329.406 98.695 328.867 96.9479L324.459 82.6331C328.053 83.0223 329.674 86.6507 331.249 90.175C331.704 91.194 332.155 92.2043 332.649 93.125C335.445 98.3355 340.855 101.512 346.001 104.425C340.416 114.764 334.417 125.018 326.382 133.594C318.347 142.17 308.047 149.033 296.479 151.106C294.536 151.454 292.51 151.662 290.607 151.134C288.224 150.473 286.365 148.774 284.511 147.081L284.511 147.081L284.511 147.08L284.511 147.08L284.51 147.08C283.885 146.509 283.26 145.938 282.617 145.408C276.158 140.092 267.65 138.804 259.142 137.517C250.623 136.227 242.106 134.938 235.648 129.607C235.586 129.556 235.525 129.505 235.464 129.454C234.755 128.865 234.018 128.252 233.115 128.115C232.133 127.966 230.955 128.721 231.11 129.702C231.231 130.47 230.3 132.046 228.734 131.202C222.695 127.949 220.942 120.865 219.349 114.429C218.801 112.216 218.272 110.08 217.595 108.203C217.214 107.147 215.567 107.683 214.862 108.556C214.825 108.601 214.789 108.647 214.752 108.693L214.69 108.771C214.022 109.609 213.24 110.591 212.242 110.325C211.051 105.947 211.466 100.998 211.868 96.2102C212.031 94.2609 212.192 92.3383 212.242 90.4918C212.246 90.3246 212.298 89.8202 212.379 89.0292V89.029C213.301 80.0168 218.03 33.8126 200.236 25.5311C204.467 24.6973 211.294 25.4689 217.344 29.1791C223.465 32.9327 227.863 39.8144 227.573 40.1784C231.8 39.5593 235.763 37.9271 239.733 36.2923C243.085 34.9118 246.441 33.5295 249.964 32.754C254.242 31.8125 258.661 31.7886 263.041 31.7689L268.825 31.7428C275.057 24.9742 274.816 17.5596 274.536 8.96105C274.483 7.33325 274.429 5.66302 274.417 3.94671C285.216 5.36489 296.664 25.7186 300.272 37.9302C301.779 43.0308 306.23 46.1651 310.732 49.335C314.65 52.0936 318.607 54.8792 320.693 59.011ZM136.618 202.999L136.619 202.999L136.619 202.999L136.62 202.999L136.62 202.999C137.856 202.685 139.085 202.373 140.297 202.052C158.849 197.145 176.165 188.508 193.331 179.928C213.782 169.706 234.585 159.239 250.993 143.317C252.261 142.087 254.272 142.172 256.025 142.398C262.505 143.233 268.88 144.887 274.95 147.308C278.13 148.577 281.707 150.756 281.73 154.179C281.737 155.385 281.275 156.537 280.819 157.653L277.764 165.141C276.46 168.336 275.134 171.649 275.246 175.098C275.359 178.546 277.317 182.186 280.636 183.133C283.954 184.081 288.053 180.994 287.196 177.652C285.727 171.929 284.723 166.088 284.194 160.203C290.66 173.005 288.43 188.279 286.046 202.42C277.489 197.912 268.532 194.165 259.314 191.236C256.148 190.23 252.599 189.343 249.608 190.789C242.285 194.329 228.503 195.272 227.146 194.321C225.788 193.369 223.932 193.828 222.368 194.378C219.849 195.263 215.05 197.133 209.316 199.368L209.315 199.369L209.315 199.369C195.245 204.853 175.55 212.53 170.128 213.216C168.7 213.397 167.264 213.531 165.829 213.665C162.725 213.954 159.623 214.244 156.607 215.007C152.195 216.122 147.846 218.435 145.511 222.34C143.767 221.38 142.678 219.684 141.583 217.979L141.583 217.979L141.583 217.978L141.583 217.978L141.583 217.978L141.583 217.978C141.054 217.155 140.525 216.33 139.919 215.584C138.059 213.293 134.153 211.879 132.369 214.23C130.804 208.879 122.882 206.814 118.902 210.719C118.288 211.323 117.775 212.018 117.262 212.714L117.261 212.714C116.728 213.437 116.195 214.159 115.548 214.779C114.277 215.993 112.244 216.742 110.77 215.784C116.794 208.031 126.934 205.457 136.618 202.999ZM116.983 300.173C112.438 301.807 107.423 300.214 102.914 298.482C98.6522 296.845 94.2029 294.892 91.6137 291.132C88.4977 286.607 88.8336 280.636 89.2927 275.162L91.2162 252.229C88.3639 254.627 86.2689 257.913 85.2983 261.51C82.9934 256.427 86.4219 249.636 91.8817 248.471C89.5751 246.561 85.7782 247.814 84.1501 250.328C82.522 252.841 82.559 256.078 83.035 259.034C83.1634 259.832 83.3197 260.628 83.4761 261.425C83.8994 263.58 84.3227 265.736 84.1923 267.919C80.7652 262.565 80.112 255.535 82.4939 249.641C83.5726 246.972 85.4846 244.36 88.2807 243.672C91.0768 242.985 94.5372 245.269 94.074 248.111C93.0125 254.622 96.0495 261.307 100.707 265.981C105.364 270.655 111.467 273.599 117.627 275.964C119.895 276.835 122.713 278.829 121.608 280.991C120.453 283.249 119.657 285.804 120.054 288.309C120.45 290.814 122.285 293.207 124.785 293.639C127.866 294.171 130.607 291.785 132.822 289.579L145.907 276.545C144.163 281.389 142.118 286.124 139.786 290.714C138.189 293.858 136.363 297.042 133.475 299.067C130.588 301.092 126.362 301.619 123.631 299.388C122.109 298.145 120.033 298.972 118.101 299.742L118.1 299.742C117.72 299.893 117.346 300.042 116.983 300.173ZM115.688 254.563C114.467 253.754 113.245 252.944 111.98 252.23C108.058 250.018 102.851 248.829 99.2508 251.533C98.0969 247.819 100.378 243.831 103.353 241.326C108.617 236.896 116.334 235.597 122.759 238.059C128.85 240.393 135.033 242.935 139.871 247.309C144.71 251.684 148.017 258.299 146.774 264.702C145.414 265.033 144.278 263.941 143.217 262.92L143.217 262.92L143.216 262.92C143.014 262.725 142.814 262.533 142.616 262.354C139.607 259.632 135.48 259.558 131.274 259.483C128.716 259.437 126.129 259.391 123.747 258.749C120.803 257.955 118.248 256.261 115.688 254.563ZM125.016 287.642C126.227 284.615 126.966 281.281 126.305 278.089C125.643 274.896 123.337 271.903 120.164 271.153C112.822 269.417 106.148 264.988 101.697 258.898C100.8 257.671 100.07 255.757 101.264 254.817C101.754 254.431 102.422 254.374 103.045 254.383C107.065 254.443 110.583 256.536 114.106 258.632L114.107 258.632L114.107 258.633L114.107 258.633L114.107 258.633C115.532 259.481 116.958 260.329 118.419 261.044C121.912 262.753 125.762 263.731 129.648 263.895C130.427 263.928 131.213 263.93 132.001 263.933H132.003C134.483 263.939 136.972 263.946 139.226 264.914C142.196 266.19 144.387 270.054 142.532 272.702C138.13 278.985 131.981 283.796 125.926 288.508L125.016 287.642ZM347.865 108.037C348.541 106.817 349.544 105.415 350.93 105.573C352.725 105.777 353.087 108.226 352.84 110.015C351.092 122.71 343.233 133.996 333.234 142.012C323.235 150.029 311.205 155.104 299.037 159.127C298.201 159.403 297.381 159.925 296.576 160.437C295.037 161.416 293.552 162.36 292.108 161.495C290.445 160.497 290.87 157.76 292.384 156.548C293.757 155.447 295.586 155.211 297.349 154.984L297.457 154.97C297.54 154.959 297.622 154.948 297.705 154.937C297.745 154.932 297.785 154.927 297.826 154.921L297.887 154.913C309.653 153.329 320.16 146.351 328.198 137.616C336.236 128.881 342.116 118.422 347.865 108.037ZM129.711 214.963C130.771 216.225 131.939 217.616 133.548 217.582C134.901 217.552 135.744 218.651 136.617 219.789C137.236 220.596 137.871 221.423 138.713 221.882C140.728 222.981 140.902 226.038 139.579 227.914C138.257 229.789 135.961 230.701 133.741 231.281C129.214 232.464 124.433 232.668 119.821 231.876C116.813 231.36 113.696 230.303 111.8 227.912C109.904 225.521 109.85 221.504 112.36 219.769C113.2 219.189 114.211 218.918 115.216 218.65L115.216 218.649C116.414 218.329 117.605 218.01 118.486 217.171C119.141 216.548 119.533 215.718 119.924 214.889C120.334 214.02 120.744 213.153 121.453 212.527C122.603 211.513 124.344 211.374 125.79 211.881C127.236 212.388 128.425 213.448 129.418 214.615C129.515 214.729 129.613 214.845 129.711 214.963ZM121.234 308.309C120.769 308.492 120.244 308.522 119.762 308.392C119.294 308.266 118.869 307.992 118.561 307.619C117.308 306.102 119.054 303.359 120.959 303.851C122.864 304.342 123.064 307.587 121.234 308.309ZM276.13 298.789C275.667 299.344 274.537 299.287 274.417 298.574C273.923 295.642 273.688 292.034 276.113 290.314L276.525 296.713C276.571 297.434 276.593 298.234 276.13 298.789ZM251.804 39.6361C254.437 41.3785 256.514 43.9475 257.666 46.8866C257.901 47.4856 258.418 47.8814 258.941 48.2807C259.215 48.4906 259.491 48.7015 259.728 48.9434C260.415 49.6452 260.528 51.1452 259.566 51.3412C259.146 51.4269 258.733 51.1952 258.364 50.9752C252.461 47.4512 245.283 44.6059 238.843 47.0128C239.902 47.5535 240.436 48.941 240.014 50.0522C241.328 50.0997 242.554 50.6907 243.735 51.27L246.854 52.8007L246.527 53.7216C241.826 51.328 236.083 51.0791 231.192 53.0569C232.817 53.3039 234.474 53.349 236.11 53.191L243.27 56.7986C243.8 57.0661 244.36 57.3602 244.659 57.8742C244.958 58.3881 244.844 59.185 244.289 59.3969C239.977 55.5946 233.877 53.9133 228.225 54.9693C227.566 55.0925 227.115 54.1727 227.395 53.5631C227.675 52.9534 228.346 52.6406 228.97 52.3948C232.103 51.1616 235.407 50.3639 238.757 50.0318C237.081 48.4784 235.14 47.2119 233.043 46.3037C232.698 45.1228 234.402 43.9909 235.357 44.7668C242.613 43.3447 250.387 44.7558 256.68 48.6376C256.733 47.4033 255.817 46.3655 254.961 45.4751L246.927 37.1255C251.616 37.7194 256.212 39.0394 260.502 41.0239C261.472 41.4727 262.43 41.9573 263.309 42.5656C266.618 44.8562 268.588 48.9537 268.309 52.9683C266.304 48.732 263.131 45.0557 259.233 42.4532C257.005 40.9657 254.478 39.8074 251.804 39.6361ZM268.324 78.6222C267.869 75.0795 267.848 71.3006 269.534 68.1512C270.038 67.2094 270.737 66.3044 271.73 65.9096C273.249 65.3056 274.997 66.0766 276.195 67.1887C279.167 69.9476 279.8 74.4167 279.545 78.4636C279.434 80.222 279.176 82.0205 278.314 83.5571C277.451 85.0937 275.875 86.3299 274.113 86.3559C272.344 86.3819 270.729 85.186 269.808 83.6752C268.888 82.1644 268.55 80.3766 268.324 78.6222ZM226.017 91.8011C222.675 86.687 222.9 79.4931 226.556 74.5981C226.993 74.0132 227.49 73.4464 228.139 73.112C229.403 72.4605 231.018 72.8534 232.114 73.7606C233.209 74.6678 233.867 75.9965 234.344 77.3363C235.756 81.3051 235.815 85.7417 234.508 89.7462C233.715 92.175 231.749 94.8028 229.232 94.3635C227.842 94.1211 226.789 92.9819 226.017 91.8011ZM258.122 118.069C258.524 117.958 258.923 117.847 259.219 117.564C259.845 116.965 259.625 115.807 258.914 115.311C258.203 114.815 257.204 114.901 256.446 115.321C255.678 115.747 255.068 116.588 255.198 117.456C255.328 118.324 256.438 118.972 257.152 118.462C257.436 118.26 257.78 118.164 258.122 118.069ZM267.146 103.968C272.695 102.739 275.797 102.895 280.558 104.108L281.561 104.369C286.311 105.61 289.278 105.615 295.307 103.661C296.028 103.427 296.802 103.822 297.036 104.543C297.27 105.264 286.268 108.389 281.239 107.119L280.312 106.878C275.681 105.662 272.987 105.485 267.74 106.647C267 106.811 266.267 106.344 266.103 105.605C265.94 104.865 266.406 104.132 267.146 103.968ZM310.731 90.7189C310.396 90.0391 309.574 89.7593 308.894 90.0939C299.129 94.8996 293.718 95.5256 284.814 94.389L282.567 94.1107C282.311 94.0816 282.086 94.058 281.849 94.0351L281.047 93.9638C275.745 93.5472 271.542 94.4465 266.149 97.6669C265.498 98.0554 265.286 98.8976 265.674 99.5481C266.063 100.199 266.905 100.411 267.556 100.023C272.574 97.0262 276.279 96.2831 281.231 96.7329C281.559 96.7627 281.833 96.7897 282.15 96.8249L285.443 97.2298C294.289 98.2569 311.065 91.3987 310.731 90.7189ZM242.987 103.598C243.743 103.544 244.399 104.113 244.453 104.869C244.507 105.624 243.938 106.281 243.182 106.334C240.054 106.557 237.899 107.62 234.665 110.226L233.495 111.192L233.11 111.515C232.905 111.687 232.73 111.833 232.665 111.887C229.814 114.264 227.915 115.559 225.396 116.591C224.695 116.879 219.853 117.864 223.606 115.843C227.359 113.822 232.249 108.658 232.249 108.658L232.965 108.072C236.595 105.152 239.191 103.868 242.987 103.598ZM245.046 110.161C244.748 109.464 243.942 109.14 243.245 109.437C239.801 110.907 237.862 112.786 234.603 117.05L233.597 118.359C232.938 119.202 232.385 120.053 231.849 120.879C230.666 122.7 229.562 124.399 227.571 125.624C224.676 127.404 228.813 126.471 229.458 126.074C232.028 124.494 233.696 122.75 236.297 119.353L237.052 118.367C239.875 114.706 241.524 113.155 244.323 111.961C245.02 111.663 245.343 110.857 245.046 110.161Z" fill="#00160A"/>
<path fill-rule="evenodd" clip-rule="evenodd" d="M249.853 105.803C248.73 104.792 247.1 104.482 246.003 103.442C244.964 102.456 244.566 100.849 245.026 99.4926C245.486 98.136 246.779 97.1015 248.203 96.9505C252.29 96.5174 256.376 96.0843 260.462 95.6512C261.432 95.5484 262.504 95.4713 263.29 96.0491C264.49 96.9314 264.301 98.8595 263.433 100.07C262.566 101.28 261.23 102.06 260.185 103.121C258.839 104.489 257.997 106.342 257.853 108.256C257.746 109.677 257.901 111.37 256.774 112.243C255.36 113.339 253.269 112.044 252.404 110.479C251.538 108.913 251.182 107.001 249.853 105.803H249.853Z" fill="#FFB61D"/>
<path fill-rule="evenodd" clip-rule="evenodd" d="M435.885 496.7C438.472 496.327 441.097 495.75 443.303 494.349C448.536 491.027 450.06 483.999 449.577 477.821C449.093 471.643 447.098 465.598 447.249 459.403C447.578 445.856 457.836 434.795 468.033 425.868C493.177 403.854 523.356 384.186 534.917 352.833C539.546 340.279 481.423 378.667 449.577 423.863C427.138 455.709 424.799 498.301 435.885 496.7Z" fill="#E7EAEE"/>
</svg>
