<svg width="25" height="25" viewBox="0 0 25 25" fill="none" xmlns="http://www.w3.org/2000/svg">
<g clip-path="url(#clip0_52_313)">
<path d="M7.95453 0.0581055H4.95453C3.89366 0.0581055 2.87625 0.479533 2.1261 1.22968C1.37596 1.97982 0.954529 2.99724 0.954529 4.05811L0.954529 7.05811C0.954529 8.11897 1.37596 9.13639 2.1261 9.88653C2.87625 10.6367 3.89366 11.0581 4.95453 11.0581H7.95453C9.0154 11.0581 10.0328 10.6367 10.783 9.88653C11.5331 9.13639 11.9545 8.11897 11.9545 7.05811V4.05811C11.9545 2.99724 11.5331 1.97982 10.783 1.22968C10.0328 0.479533 9.0154 0.0581055 7.95453 0.0581055V0.0581055ZM9.95453 7.05811C9.95453 7.58854 9.74381 8.09725 9.36874 8.47232C8.99367 8.84739 8.48496 9.05811 7.95453 9.05811H4.95453C4.4241 9.05811 3.91539 8.84739 3.54032 8.47232C3.16524 8.09725 2.95453 7.58854 2.95453 7.05811V4.05811C2.95453 3.52767 3.16524 3.01896 3.54032 2.64389C3.91539 2.26882 4.4241 2.05811 4.95453 2.05811H7.95453C8.48496 2.05811 8.99367 2.26882 9.36874 2.64389C9.74381 3.01896 9.95453 3.52767 9.95453 4.05811V7.05811Z" fill="#0D0C22"/>
<path d="M20.9544 0.0581055H17.9544C16.8935 0.0581055 15.8761 0.479533 15.1259 1.22968C14.3758 1.97983 13.9544 2.99724 13.9544 4.05811V7.05811C13.9544 8.11898 14.3758 9.13639 15.1259 9.88654C15.8761 10.6367 16.8935 11.0581 17.9544 11.0581H20.9544C22.0152 11.0581 23.0326 10.6367 23.7828 9.88654C24.5329 9.13639 24.9544 8.11898 24.9544 7.05811V4.05811C24.9544 2.99724 24.5329 1.97983 23.7828 1.22968C23.0326 0.479533 22.0152 0.0581055 20.9544 0.0581055V0.0581055ZM22.9544 7.05811C22.9544 7.58854 22.7437 8.09725 22.3686 8.47232C21.9935 8.8474 21.4848 9.05811 20.9544 9.05811H17.9544C17.4239 9.05811 16.9152 8.8474 16.5402 8.47232C16.1651 8.09725 15.9544 7.58854 15.9544 7.05811V4.05811C15.9544 3.52767 16.1651 3.01897 16.5402 2.64389C16.9152 2.26882 17.4239 2.05811 17.9544 2.05811H20.9544C21.4848 2.05811 21.9935 2.26882 22.3686 2.64389C22.7437 3.01897 22.9544 3.52767 22.9544 4.05811V7.05811Z" fill="#0D0C22"/>
<path d="M7.95453 13.0581H4.95453C3.89366 13.0581 2.87625 13.4795 2.1261 14.2297C1.37596 14.9798 0.954529 15.9972 0.954529 17.0581L0.954529 20.0581C0.954529 21.119 1.37596 22.1364 2.1261 22.8865C2.87625 23.6367 3.89366 24.0581 4.95453 24.0581H7.95453C9.0154 24.0581 10.0328 23.6367 10.783 22.8865C11.5331 22.1364 11.9545 21.119 11.9545 20.0581V17.0581C11.9545 15.9972 11.5331 14.9798 10.783 14.2297C10.0328 13.4795 9.0154 13.0581 7.95453 13.0581ZM9.95453 20.0581C9.95453 20.5885 9.74381 21.0973 9.36874 21.4723C8.99367 21.8474 8.48496 22.0581 7.95453 22.0581H4.95453C4.4241 22.0581 3.91539 21.8474 3.54032 21.4723C3.16524 21.0973 2.95453 20.5885 2.95453 20.0581V17.0581C2.95453 16.5277 3.16524 16.019 3.54032 15.6439C3.91539 15.2688 4.4241 15.0581 4.95453 15.0581H7.95453C8.48496 15.0581 8.99367 15.2688 9.36874 15.6439C9.74381 16.019 9.95453 16.5277 9.95453 17.0581V20.0581Z" fill="#0D0C22"/>
<path d="M20.9544 13.0581H17.9544C16.8935 13.0581 15.8761 13.4795 15.1259 14.2297C14.3758 14.9798 13.9544 15.9972 13.9544 17.0581V20.0581C13.9544 21.119 14.3758 22.1364 15.1259 22.8865C15.8761 23.6367 16.8935 24.0581 17.9544 24.0581H20.9544C22.0152 24.0581 23.0326 23.6367 23.7828 22.8865C24.5329 22.1364 24.9544 21.119 24.9544 20.0581V17.0581C24.9544 15.9972 24.5329 14.9798 23.7828 14.2297C23.0326 13.4795 22.0152 13.0581 20.9544 13.0581ZM22.9544 20.0581C22.9544 20.5885 22.7437 21.0973 22.3686 21.4723C21.9935 21.8474 21.4848 22.0581 20.9544 22.0581H17.9544C17.4239 22.0581 16.9152 21.8474 16.5402 21.4723C16.1651 21.0973 15.9544 20.5885 15.9544 20.0581V17.0581C15.9544 16.5277 16.1651 16.019 16.5402 15.6439C16.9152 15.2688 17.4239 15.0581 17.9544 15.0581H20.9544C21.4848 15.0581 21.9935 15.2688 22.3686 15.6439C22.7437 16.019 22.9544 16.5277 22.9544 17.0581V20.0581Z" fill="#0D0C22"/>
</g>
<defs>
<clipPath id="clip0_52_313">
<rect width="24" height="24" fill="white" transform="translate(0.954529 0.0581055)"/>
</clipPath>
</defs>
</svg>
