<svg width="27" height="32" viewBox="0 0 27 32" fill="none" xmlns="http://www.w3.org/2000/svg">
<path d="M22.5016 16.8217C22.4682 12.827 25.7775 10.8799 25.9316 10.7929C24.0558 8.06286 21.1485 7.68815 20.1235 7.66139C17.6784 7.40716 15.3136 9.12011 14.0676 9.12011C12.8014 9.12011 10.8855 7.68815 8.81551 7.72834C6.15596 7.76845 3.67061 9.30746 2.31072 11.6895C-0.502897 16.554 1.59393 23.7002 4.29365 27.6346C5.64011 29.5617 7.21445 31.7096 9.27777 31.6359C11.2941 31.5556 12.0511 30.3512 14.4829 30.3512C16.8946 30.3512 17.6046 31.6359 19.7082 31.5891C21.872 31.5556 23.2386 29.6553 24.5382 27.7149C26.0991 25.5068 26.7221 23.3322 26.7489 23.2251C26.6953 23.1916 22.5419 21.6059 22.5016 16.8217ZM18.5291 5.0719C19.6144 3.71361 20.3579 1.87354 20.1503 0C18.5827 0.0668761 16.6132 1.08394 15.4877 2.40884C14.4896 3.57978 13.5919 5.49343 13.8264 7.29339C15.5815 7.4205 17.397 6.40344 18.5291 5.0719Z" fill="black"/>
</svg>
