<svg width="25" height="25" viewBox="0 0 25 25" fill="none" xmlns="http://www.w3.org/2000/svg">
<g clip-path="url(#clip0_52_303)">
<path d="M13.9546 2.08005V1.02905C13.9546 0.763836 13.8492 0.509482 13.6617 0.321946C13.4742 0.13441 13.2198 0.0290527 12.9546 0.0290527C12.6894 0.0290527 12.435 0.13441 12.2475 0.321946C12.0599 0.509482 11.9546 0.763836 11.9546 1.02905V2.08005C9.94135 2.26054 8.01701 2.99326 6.39357 4.19747C4.77013 5.40169 3.51061 7.03067 2.75377 8.90493C1.99693 10.7792 1.77214 12.826 2.10418 14.8199C2.43621 16.8137 3.31219 18.6772 4.63558 20.2051C4.11295 20.4636 3.67621 20.8677 3.37797 21.3688C3.07972 21.8698 2.93269 22.4464 2.95458 23.0291C2.95458 23.2943 3.05994 23.5486 3.24748 23.7362C3.43501 23.9237 3.68937 24.0291 3.95458 24.0291C4.2198 24.0291 4.47415 23.9237 4.66169 23.7362C4.84923 23.5486 4.95458 23.2943 4.95458 23.0291C4.94627 22.7208 5.05693 22.4212 5.2636 22.1924C5.47027 21.9636 5.7571 21.8231 6.06458 21.8001C6.13337 21.787 6.20046 21.7662 6.26458 21.7381C8.18012 23.2238 10.5354 24.0301 12.9596 24.0301C15.3837 24.0301 17.739 23.2238 19.6546 21.7381C19.7131 21.765 19.7741 21.7864 19.8366 21.8021C20.1451 21.8231 20.4337 21.9625 20.642 22.1911C20.8503 22.4197 20.9623 22.7199 20.9546 23.0291C20.9546 23.2943 21.0599 23.5486 21.2475 23.7362C21.435 23.9237 21.6894 24.0291 21.9546 24.0291C22.2198 24.0291 22.4742 23.9237 22.6617 23.7362C22.8492 23.5486 22.9546 23.2943 22.9546 23.0291C22.9765 22.4464 22.8294 21.8698 22.5312 21.3688C22.233 20.8677 21.7962 20.4636 21.2736 20.2051C22.597 18.6772 23.4729 16.8137 23.805 14.8199C24.137 12.826 23.9122 10.7792 23.1554 8.90493C22.3986 7.03067 21.139 5.40169 19.5156 4.19747C17.8922 2.99326 15.9678 2.26054 13.9546 2.08005ZM3.95458 13.0291C3.95458 11.249 4.48242 9.50896 5.47136 8.02892C6.46029 6.54888 7.8659 5.39533 9.51043 4.71414C11.155 4.03295 12.9646 3.85472 14.7104 4.20199C16.4562 4.54925 18.0599 5.40642 19.3185 6.66509C20.5772 7.92377 21.4344 9.52741 21.7817 11.2732C22.1289 13.0191 21.9507 14.8287 21.2695 16.4732C20.5883 18.1177 19.4348 19.5233 17.9547 20.5123C16.4747 21.5012 14.7346 22.0291 12.9546 22.0291C10.5685 22.0261 8.28103 21.077 6.59384 19.3898C4.90664 17.7026 3.95749 15.4151 3.95458 13.0291Z" fill="#0D0C22"/>
<path d="M20.1693 0.029031C19.9041 0.029031 19.6497 0.134388 19.4622 0.321924C19.2747 0.509461 19.1693 0.763815 19.1693 1.02903C19.1693 1.29425 19.2747 1.5486 19.4622 1.73614C19.6497 1.92367 19.9041 2.02903 20.1693 2.02903C20.518 2.00252 20.8685 2.04691 21.1996 2.15951C21.5307 2.27212 21.8355 2.4506 22.0958 2.68421C22.356 2.91782 22.5662 3.20172 22.7138 3.51878C22.8613 3.83584 22.9432 4.17949 22.9543 4.52903C22.9543 4.79425 23.0597 5.0486 23.2472 5.23614C23.4347 5.42367 23.6891 5.52903 23.9543 5.52903C24.2195 5.52903 24.4739 5.42367 24.6614 5.23614C24.849 5.0486 24.9543 4.79425 24.9543 4.52903C24.9415 3.91753 24.8069 3.31471 24.5583 2.75586C24.3098 2.19701 23.9522 1.69334 23.5067 1.27432C23.0611 0.855294 22.5365 0.529337 21.9634 0.315515C21.3904 0.101693 20.7804 0.00429861 20.1693 0.029031Z" fill="#374957"/>
<path d="M2.95453 4.52903C2.96567 4.17949 3.04749 3.83584 3.19505 3.51878C3.3426 3.20172 3.55284 2.91782 3.81308 2.68421C4.07332 2.4506 4.37818 2.27212 4.70927 2.15951C5.04036 2.04691 5.39082 2.00252 5.73953 2.02903C6.00475 2.02903 6.2591 1.92367 6.44664 1.73614C6.63417 1.5486 6.73953 1.29425 6.73953 1.02903C6.73953 0.763815 6.63417 0.509461 6.44664 0.321924C6.2591 0.134388 6.00475 0.029031 5.73953 0.029031C5.12839 0.00429861 4.51846 0.101693 3.94541 0.315515C3.37236 0.529337 2.84771 0.855294 2.40216 1.27432C1.9566 1.69334 1.59908 2.19701 1.35051 2.75586C1.10194 3.31471 0.967325 3.91753 0.954529 4.52903C0.954529 4.79425 1.05989 5.0486 1.24742 5.23614C1.43496 5.42367 1.68931 5.52903 1.95453 5.52903C2.21975 5.52903 2.4741 5.42367 2.66164 5.23614C2.84917 5.0486 2.95453 4.79425 2.95453 4.52903Z" fill="#374957"/>
<path d="M13.9547 11.6151V7.02905C13.9547 6.76384 13.8493 6.50948 13.6618 6.32195C13.4743 6.13441 13.2199 6.02905 12.9547 6.02905C12.6895 6.02905 12.4351 6.13441 12.2476 6.32195C12.06 6.50948 11.9547 6.76384 11.9547 7.02905V12.0291C11.9547 12.2942 12.0601 12.5486 12.2477 12.7361L15.2477 15.7361C15.4363 15.9182 15.6889 16.019 15.9511 16.0167C16.2133 16.0144 16.4641 15.9093 16.6495 15.7239C16.8349 15.5385 16.9401 15.2877 16.9424 15.0255C16.9446 14.7633 16.8438 14.5107 16.6617 14.3221L13.9547 11.6151Z" fill="#374957"/>
</g>
<defs>
<clipPath id="clip0_52_303">
<rect width="24" height="24" fill="white" transform="translate(0.954529 0.0290527)"/>
</clipPath>
</defs>
</svg>
